<svg xmlns="http://www.w3.org/2000/svg" viewBox="0 0 524.57 361.32">
  <path fill="#fff" d="M262.28 0c-13.84 0-112.98 57.24-119.9 69.23-6.92 11.99-6.92 126.46 0 138.45 6.05 10.47 82.41 55.44 110.88 66.67v-75.63l-49.37-49.37 10.9-10.9 38.47 38.48V89.78h18.04v38.25l51.19-29.55 7.7 13.35-58.89 34v128.51c28.48-11.22 104.84-56.2 110.89-66.66 6.92-12 6.92-126.46 0-138.45C375.26 57.23 276.13 0 262.29 0z"/>
  <g fill="#fff" transform="translate(125.56)">
    <circle cx="220.51" cy="349.92" r="10"/>
    <path d="M-81.54 349.44h-25.73l-3.83 10.43h-14.46l30.48-73.27h1.04l30.59 73.27h-14.06zm-3.82-10.03-7.55-19.63-1.75-5.8-1.66 5.8-10.95 29.66zm65.53 9.09v11.37h-34.62v-72.03h13.12v60.67zm32.87 12.72q-11.73 0-18.7-6.25-6.93-6.3-6.93-20.83v-46.3H.85v47.75q0 8.16 3.57 11.26 3.61 3.1 8.42 3.1 4.85 0 8.27-3.05 3.4-3.04 3.4-11.31v-47.75h13.44v46.3q0 14.52-6.77 20.83-6.77 6.25-18.14 6.25zm98.43-74.62v73.27H98.66v-30.9l.46-12.19-3.67 5.58L81.3 339l-14.15-16.64-3.67-5.58.56 12.2v30.9H51.22V286.6h1.03l29.15 34.37 28.93-34.37zm64.22 1.24v73.48h-1.03l-34.52-39.37-3.2-4.14.51 10.03v32.03h-12.71V286.6h1.14l34 39.69 3.61 4.7-.51-9.87v-33.28zm13.27 0h13.23v72.03h-13.23zm68.21 0q15.8 0 24.23 8.9 8.42 8.83 8.42 26.24 0 11.32-3.82 19.64-3.77 8.26-11.16 12.76-7.34 4.5-17.78 4.5h-18.5v-72.04zm-.42 60.67q7.13 0 11.52-3.52 4.4-3.51 6.26-9.14 1.86-5.69 1.86-12.56 0-10.95-4.65-18.03-4.6-7.08-14.99-7.08h-4.86v50.33zm77.92.93h-25.73l-3.82 10.43h-14.47l30.49-73.27h1.03l30.59
73.27H338.7zm-3.82-10.03-7.54-19.63-1.76-5.8-1.65 5.8-10.96 29.66zm45.42-7.7v28.16h-13.23v-29.09l-22.74-42.94h14.57l15.14 31.32 14.52-31.32H399z"/>
  </g>
</svg>
