<svg xmlns="http://www.w3.org/2000/svg" viewBox="0 0 400 400">
  <g fill="#fff">
    <path d="M200 26.24c-13.85 0-112.98 57.24-119.9 69.23-6.93 11.99-6.93 126.46 0 138.45 6.04 10.47 82.4 55.44 110.88 66.67v-75.63L141.6 175.6l10.9-10.9 38.48 38.48v-87.14h18.04v38.25l51.18-29.55 7.7 13.34-58.88 34V300.6c28.47-11.23 104.84-56.2 110.88-66.67 6.93-12 6.93-126.46 0-138.45-6.92-12-106.06-69.23-119.9-69.23z"/>
    <path d="M190.98 300.59v55.13h-34.85v18.04h87.74v-18.04h-34.85v-55.13c-4.13 1.63-7.27 2.56-9.02 2.56s-4.9-.94-9.02-2.56z"/>
  </g>
</svg>
