<svg xmlns="http://www.w3.org/2000/svg" viewBox="0 0 624.93 259.08">
  <path fill="#231f20" d="M409.93 147c-2.59-60.72-106.4-53.88-106.4-96.28 0-21.38 22.28-29.59 39.93-29.59 6.58 0 17.02 1.41 24.57 4.54 5.81 2.18 16.48 8.75 23.03 16.62l1.55 2.12h.12l.03.04h2.19l3.24.02-11.14-41.65h-3.81c-1.66 2.88-7.8 1.78-7.8 1.78-11.12-2.8-18.2-3.74-29.5-4.4-39.24-2.3-77.7 14.9-77.7 53.92 0 65.62 106.25 53.03 106.25 101.32 0 21.69-26.37 36.14-44.02 36.14-12.43 0-25.18-2.67-37.1-7.36-15.48-6.49-26.82-19.1-26.82-19.1l-4.68.77 11.98 45.37h2.87s1.9-4.31 7.02-3.02v-.03a165.07 165.07 0 0 0 43.31 5.67c53.95 0 84.3-33.79 82.88-66.88m-261.86 0c-2.6-60.72-106.42-53.88-106.42-96.28 0-21.38 22.29-29.59 39.94-29.59 6.58 0 17.01 1.41 24.57 4.54 5.82 2.18 16.48 8.75 23.03 16.62l1.53 2.12h.14c0 .02.03.02.03.04h2.2l3.23.02-11.14-41.65h-3.82c-1.65 2.88-7.8 1.78-7.8 1.78C102.45 1.8 95.37.86 84.08.2 44.82-2.1 6.37 15.1 6.37 54.12c0 65.62 106.23 53.03 106.23 101.32 0 21.69-26.35 36.14-44 36.14-12.44 0-25.19-2.67-37.11-7.36-15.49-6.49-26.8-19.1-26.8-19.1l-4.69.77 11.98 45.37h2.85s1.9-4.31
7.05-3.02l-.02-.03a165.21 165.21 0 0 0 43.32 5.67c53.95 0 84.3-33.79 82.9-66.88M243.3 3.14h-72.04V8.1l14.54 7.15.03.02.52.25c3.05 1.7 4.38 5 4.53 8.42v146.88c-.95 44.29-10.43 67.28-55.34 82.78v5.48s47.3-.3 68.7-25.91h-.02c11.23-12.93 18.02-32.69 19.37-61.91V24.65c.01-.03.05-.05.05-.05 0-3.67 1.32-7.26 4.56-9.08l.52-.25a.2.2 0 0 1 .03-.02L243.3 8.1V3.14m381.62.35h-70.41v4.98l14.53 7.14.02.02.55.25c2.86 1.63 4.23 4.64 4.49 7.86v.88l.06 105.56c0 39.38-16.11 61.47-45.76 62.5l-.09.2c-1.6-.02-3.2-.08-4.8-.08-31.32 0-48.36-22.1-48.36-62.62V46.15c0-12.04-.05-18.58-.03-22.62.3-3.14 1.67-6.05 4.5-7.65l.52-.25.03-.02 14.53-7.14V3.49h-70.26v4.98L439 15.6l.02.02.52.25c3.24 1.82 4.58 5.4 4.58 9.07l.02.05v105.18c0 21.93-.6 42.35 15.48 60.04 7.13 7.74 16.32 13.17 26.33 16.6 0 0 1.52.57 4.42 1.38 1.2.3 2.42.64 3.64.94 13.94 3.38 43.44 8.2 70.38-2.6l.41-.18c.35-.12.74-.24 1.08-.37h-.1c9.05-3.47 17.38-8.63 23.94-15.77 16.08-17.7 15.47-38.11 15.47-60.04l.11-105.38v-.2c.1-3.55 1.41-6.97
4.54-8.72l.52-.25.04-.02 14.54-7.14V3.49"/>
</svg>
