<svg xmlns="http://www.w3.org/2000/svg" viewBox="0 0 1455.04 272.22">
  <path fill="white" d="M409.93 160.14c-2.59-60.72-106.4-53.87-106.4-96.27 0-21.39 22.28-29.6 39.93-29.6 6.58 0 17.02 1.42 24.57 4.55 5.81 2.17 16.48 8.75 23.03 16.61l1.55 2.13h.12l.03.04h2.19l3.24.02-11.14-41.65h-3.81c-1.66 2.88-7.8 1.77-7.8 1.77-11.12-2.8-18.2-3.73-29.5-4.4-39.24-2.3-77.7 14.9-77.7 53.92 0 65.62 106.25 53.03 106.25 101.33 0 21.68-26.37 36.13-44.02 36.13-12.43 0-25.18-2.67-37.1-7.35-15.48-6.5-26.82-19.11-26.82-19.11l-4.68.78 11.98 45.36h2.87s1.9-4.3 7.02-3.01v-.03a165.07 165.07 0 0 0 43.31 5.67c53.95 0 84.3-33.8 82.88-66.89m-261.86 0c-2.6-60.72-106.42-53.87-106.42-96.27 0-21.39 22.29-29.6 39.94-29.6 6.58 0 17.01 1.42 24.57 4.55 5.82 2.17 16.48 8.75 23.03 16.61l1.53 2.13h.14c0 .01.03.01.03.04h2.2l3.23.02-11.14-41.65h-3.82c-1.65 2.88-7.8 1.77-7.8 1.77-11.12-2.8-18.2-3.73-29.49-4.4-39.25-2.3-77.7 14.9-77.7 53.92 0 65.62 106.23 53.03 106.23 101.33 0 21.68-26.35 36.13-44 36.13-12.44 0-25.19-2.67-37.11-7.35-15.49-6.5-26.8-19.11-26.8-19.11l-4.69.78 11.98 45.36h2.85s1.9-4.3
7.05-3.01l-.02-.03a165.21 165.21 0 0 0 43.32 5.67c53.95 0 84.3-33.8 82.9-66.89M243.3 16.29h-72.04v4.96l14.54 7.15.03.01.52.25c3.05 1.7 4.38 5 4.53 8.43v146.88c-.95 44.28-10.43 67.27-55.34 82.78v5.47s47.3-.3 68.7-25.9h-.02c11.23-12.93 18.02-32.7 19.37-61.92V37.8c.01-.03.05-.06.05-.06 0-3.67 1.32-7.26 4.56-9.08l.52-.25a.2.2 0 0 1 .03-.01l14.55-7.15v-4.96m381.62.35h-70.41v4.97l14.53 7.15.02.01.55.25c2.86 1.63 4.23 4.64 4.49 7.86v.89l.06 105.56c0 39.38-16.11 61.47-45.76 62.5l-.09.2c-1.6-.03-3.2-.09-4.8-.09-31.32 0-48.36-22.1-48.36-62.61V59.3c0-12.05-.05-18.59-.03-22.62.3-3.15 1.67-6.06 4.5-7.66l.52-.25.03-.01 14.53-7.15v-4.97h-70.26v4.97L439 28.76l.02.01.52.25c3.24 1.83 4.58 5.41 4.58 9.08l.02.04v105.19c0 21.92-.6 42.34 15.48 60.04 7.13 7.74 16.32 13.16 26.33 16.6 0 0 1.52.56 4.42 1.38 1.2.3 2.42.64 3.64.93 13.94 3.38 43.44 8.2 70.38-2.6l.41-.18c.35-.12.74-.23 1.08-.37h-.1c9.05-3.47 17.38-8.63 23.94-15.76 16.08-17.7 15.47-38.12 15.47-60.04l.11-105.38v-.2c.1-3.55 1.41-6.97
4.54-8.73l.52-.25.04-.01 14.54-7.15v-4.97m206.2 130.23h-1.1v-.12h-19.73v.12h-.94v1.64l4.82 2.37h.02l.17.1c1.06.6 1.5 1.75 1.52 2.93v44.84l-35.76-48.86c-2.32-3.17-6.14-3.14-6.14-3.14h-11.65v.12h-.99v1.64l4.83 2.37h.01l.17.1c1.07.6 1.55 1.8 1.55 3.02v54.52c-.03 1.15-.48 2.25-1.5 2.81l-.16.08h-.02l-4.82 2.4v1.65h7.92v-.05h5.9v.05h7.9v-1.65l-4.8-2.4h-.01l-.18-.08c-1-.55-1.44-1.62-1.5-2.73v-46.57l32.72 44.83s6.67 8.93 14.83 10.23c0 0 2.82.55 6.06.14v-1.15c-.32-.1-.65-.22-1-.37-3.76-1.87-4.52-6.22-4.64-8.94v-52.9c.03-1.17.46-2.32 1.5-2.9l.17-.08.01-.01 4.84-2.37v-1.64m183.17 6.08 8.6-.04v-.02c6.49.33 11.8 3.42 12 11.9.27 11.8-5.9 13.88-12.96 14.4h-7.64zm39.99 58.44a17.84 17.84 0 0 1-3.98-2.69c-.88-.8-2.22-2.3-2.22-2.3-1.73-1.44-11.8-18.77-11.8-18.77a6.76 6.76 0 0 0-5.49-4.12 19.05 19.05 0 0 0 15.47-19.05c0-9.5-8.34-17.71-22.35-17.71h-18.92v-.03h-7.91v1.66l4.83 2.37.19.1c1.06.6 1.51 1.78 1.51 2.99 0 0 .01.04.03.05.03 2.87-.02 6.28-.02 7.56v39.34c0 1.18.05 4.56.02 7.51 0 1.21-.44 2.4-1.5
3l-.19.09-4.83 2.36v1.66h7.92v-.01h7.9v.01h7.92v-1.66l-4.83-2.36h-.02l-.16-.1c-1.08-.59-1.5-1.8-1.5-3l-.03-.03c-.09-2.83-.03-6-.03-7.47v-15.13h2.78l-.07.03s.08-.02.23-.02h1.87c1.79.19 4.34.96 6.32 3.63l1.09 1.82v.01l9.78 16.26c1.72 2.3 6.86 9.34 20.56 8.2l.75-.04c.72 0 1.29-.05 1.65-.1v-1.64l-4.97-2.42m51.31-16.92c-.85-20.14-35.3-17.88-35.3-31.94 0-7.09 7.38-9.81 13.25-9.81 2.18 0 5.64.45 8.14 1.49 1.94.74 5.47 2.92 7.65 5.53.31.41.5.7.5.7h.06v.01h.73l1.07.01-3.69-13.82h-1.27c-.55.95-2.58.6-2.58.6a45.2 45.2 0 0 0-9.8-1.47c-13.02-.77-25.78 4.94-25.78 17.9 0 21.76 35.26 17.59 35.26 33.61 0 7.2-8.75 12-14.6 12-4.13 0-8.35-.9-12.33-2.45a28 28 0 0 1-8.89-6.32l-1.55.24 3.98 15.06h.95s.63-1.43 2.34-1a54.46 54.46 0 0 0 14.34 1.87c17.93 0 28-11.22 27.52-22.2m158.6-47.61h-20.92v1.64l4.83 2.37.17.1c.06.01.12.06.17.1h-.01s1.76 1.11.84 3.14c-.8 1.48-14.6 22.72-14.6 22.72l-13.97-22.72a2.44 2.44 0 0 1 .59-2.94l.11-.07c.1-.09.2-.17.33-.24l.18-.08.01-.01h-.01l4.83-2.37v-1.64h-26.69v1.64l5 2.46a8.78
8.78 0 0 1 3.28 3.09c.74 1.1 1.45 2.26 2.24 3.53l17.3 27.8v15.41c0 4.03.03 6.27.03 7.72-.05 1.12-.49 2.18-1.48 2.74l-.18.07v.02l-4.83 2.37v1.64h23.67v-1.64l-4.83-2.37v-.02l-.18-.07c-1.08-.6-1.52-1.79-1.52-3 0 0 0-.02-.02-.02v-22.85l17.18-26 3.47-5.33a8.14 8.14 0 0 1 3.3-3.09l5-2.46v-1.64h-3.28m-330.2 0v-.03h-15.76v.03h-2.17v1.64l4.85 2.37.17.1c.05.01.1.06.16.1 0 0 1.47.94 1 2.67l-.1.26a7.94 7.94 0 0 0-.23.57c-.4 1.11-.93 2.43-1.56 4.1l-15.83 39.57-16.66-40.75c-.34-.94-.88-2.37-1.39-3.88a2.46 2.46 0 0 1 .74-2.31c.03 0 .03-.02.05-.03l.1-.07c.1-.09.21-.17.34-.24l.16-.08.01-.01 4.83-2.37v-1.64h-5.36v-.03h-18.09v.03h-1.9v1.64l5.01 2.46a6.62 6.62 0 0 1 2.96 2.87l25.7 62.62h3.73l26.2-62.35.05-.03a6.64 6.64 0 0 1 3.08-3.1l5.01-2.47v-1.64h-5.1m259.71-.73h-.62c-1.24.52-2.76.75-5.24.73h-36.08c-2.05.02-4-.2-5.24-.73h-.63v.07l-4.24 14.37h1.84l3.39-4.58a3.97 3.97 0 0 1 3.3-1.62l.01-.02h14.32v53.88h-.01c0 1.23-.42 2.42-1.51 3.02l-.17.07v.02l-4.83
2.37v1.64h23.7v-1.64l-4.84-2.37h.01l-.02-.02-.17-.07c-1.06-.6-1.51-1.79-1.51-3v-53.9h14.27l.01.02c1.21 0 2.43.45 3.3 1.62l3.38 4.58h1.86l-4.27-14.44m-201.8 53.44-3.71 5.25h-.02l-.03.06a8.22 8.22 0 0 1-6.2 3.15h-22.03l.02-24.85 10.52.02c1.2 0 2.4.44 3 1.52l.08.17.02.01 2.1 4.83h1.65v-18.26h-1.65l-2.14 2.66c-1.07 1.22-1.9 1.53-3.11 1.53h-10.47v-21.8h19.57c1.22 0 2.41.47 3.28 1.64l3.74 5.07h1.85l-3.84-13.08-.34-1.17h-.86c-1.37.73-2.35.52-4.14.52H943.8v.02h-1.04v1.64l4.84 2.37h.01l.16.1c1.08.6 1.53 1.78 1.53 3l.03.05c.03 3.1-.01 6.46-.01 7.56v39.37c0 1.1 0 4.44-.02 7.37 0 1.22-.45 2.41-1.53 3l-.16.08-4.85 2.4v1.65h45.39l5.64-15.88h-1.86m-238.2-52.71h-1.55v-.02H731.9v.02h-1.53v1.64l4.82 2.37.2.1c.96.53 1.4 1.52 1.48 2.59v.3l.02 35.74c0 13.08-5.35 20.4-15.18 20.76l-.04.05-1.58-.03c-10.4 0-16.05-7.33-16.05-20.78v-28.6c0-3.99-.02-6.17-.02-7.5.11-1.05.55-2.01 1.49-2.54l.18-.08.01-.01 4.83-2.37v-1.64h-1.5v-.02h-20.29v.02h-1.54v1.64l4.84 2.37.16.1c1.09.6 1.51 1.78 1.51 3l.02.02v35.61c0 7.28-.18
14.06 5.14 19.93a21.04 21.04 0 0 0 8.74 5.5h-.04s.54.2 1.5.46l1.21.32c4.64 1.13 14.42 2.71 23.36-.88.04 0 .1-.03.15-.04.11-.04.25-.08.35-.14h-.04a20.68 20.68 0 0 0 7.95-5.22c5.34-5.87 5.14-12.65 5.14-19.93l.02-35.68v-.04c.04-1.2.48-2.34 1.51-2.92l.2-.08v-.01l4.81-2.37v-1.64m381.99-.13H1112v1.65l4.83 2.37h.01l.18.09c1.07.6 1.51 1.79 1.51 3v47c0 1.3.06 4.72 0 7.45 0 1.21-.46 2.44-1.53 3.03l-.18.08h-.01l-4.83 2.4v1.65h23.74v-1.65l-4.83-2.4-.18-.08c-1.07-.59-1.51-1.78-1.51-3-.05-2.8 0-6.25 0-7.48v-46.99c0-1.22.44-2.4 1.51-3.01l.18-.09 4.83-2.37v-1.65m-272.69 0h-23.7v1.65l4.83 2.37h-.01l.17.09c1.09.6 1.5 1.79 1.5 3l.03.03v46.97c0 1.3.06 4.72 0 7.45 0 1.21-.48 2.44-1.55 3.03l-.17.08h-.01l-4.83 2.4v1.65h23.74v-1.65l-4.82-2.4-.18-.08c-1.09-.59-1.51-1.78-1.51-3h-.02c-.02-2.8.02-6.25.02-7.48v-46.99c0-1.22.42-2.4 1.51-3.01l.18-.09 4.82-2.37v-1.65M1127.21 0h-5.87l-19.3 14.33.93 2.18 27.17-9.74L1127.2 0m-241 21.8h-1.08v-.11h-19.76v.1h-.91v1.66l4.8 2.36h.03l.16.09c1.06.6 1.5 1.77 1.5
2.95v44.84l-35.73-48.86c-2.34-3.18-6.15-3.14-6.15-3.14H817.4v.1h-.97v1.66l4.83 2.36h.01l.16.09c1.09.6 1.56 1.82 1.56 3.03v54.53c-.05 1.15-.47 2.25-1.5 2.8l-.17.1h-.01l-4.83 2.38v1.64h7.92v-.04h5.9v.04h7.92v-1.64l-4.83-2.39-.19-.08c-1-.56-1.43-1.62-1.48-2.74V36.96l32.73 44.83s6.67 8.94 14.8 10.23c0 0 2.84.55 6.07.15v-1.15c-.32-.11-.64-.22-1-.37-3.76-1.88-4.52-6.22-4.65-8.93v-52.9c.03-1.19.47-2.33 1.51-2.92l.18-.08v-.01l4.84-2.36V21.8m417.82 37.01 10.32-27.3 10.54 27.3zm45.36 27.46a6.7 6.7 0 0 1-3.07-3.1c-1.55-2.64-2.1-4.6-3.35-7.66l-19.1-48.27c-2.22-5.46-6.37-5.54-6.37-5.54h-15.07v1.65l3.7 1.96c.9.5 1.52 1.16 1.53 2.2-.04.69-.18 1.1-.18 1.1-2.49 6.78-18.16 46.9-18.16 46.9-1.02 2.67-1.96 5.3-3.23 7.66h-.01l-.2.37-.17.3a6.87 6.87 0 0 1-2.72 2.43l-5 2.45v1.66h23.09v-1.66l-4.84-2.36-.18-.09-.17-.11s-.01-.03-.05-.06c-.99-.77-.95-2.12-.95-2.12h.02a2 2 0 0 1 .03-.54c.06-.34.16-.69.27-1.05.26-.88 6.14-16 6.14-16h26.48l6.17 15.98.2.58c.52 1.58-.1 2.56-.57
2.97l-.01.03c-.06.03-.08.06-.12.07-.11.09-.21.17-.34.25l-.17.09h-.02.02l-4.84 2.36v1.66h26.28v-1.66l-5.03-2.45M764.1 58.8l10.35-27.3 10.53 27.3zm45.4 27.46a6.68 6.68 0 0 1-3.1-3.1c-1.55-2.64-2.1-4.6-3.33-7.66l-19.11-48.27c-2.22-5.46-6.37-5.54-6.37-5.54H762.5v1.65l3.72 1.96c.91.5 1.52 1.16 1.54 2.2-.04.69-.19 1.1-.19 1.1-2.5 6.78-18.16 46.9-18.16 46.9-1.03 2.67-1.96 5.3-3.24 7.66l-.21.37c-.04.1-.1.19-.16.3a6.93 6.93 0 0 1-2.72 2.43l-5.01 2.45v1.66h23.09v-1.66l-4.83-2.36-.2-.09-.16-.11s0-.03-.03-.06c-1-.77-.97-2.12-.97-2.12h.02a2 2 0 0 1 .03-.54c.07-.34.17-.69.27-1.05.28-.88 6.15-16 6.15-16h26.5l6.15 15.98.21.58c.52 1.58-.13 2.56-.59 2.97l-.02.01a4.5 4.5 0 0 1-.44.34l-.17.08h-.02l-4.83 2.37v1.66h26.28v-1.66l-5.01-2.45m420.28-16.85c-.87-20.14-35.3-17.87-35.3-31.95 0-7.1 7.38-9.82 13.23-9.82 2.17 0 5.65.48 8.16 1.5 1.93.72 5.48 2.92 7.64 5.52l.5.71h.05v.01h.74l1.07.01-3.68-13.83h-1.27c-.55.96-2.6.6-2.6.6a46.1 46.1 0 0 0-9.8-1.46c-13-.76-25.76 4.95-25.76 17.88 0 21.8 35.24 17.6 35.24 33.65
0 7.18-8.75 11.98-14.6 11.98-4.12 0-8.36-.9-12.31-2.45-5.16-2.15-8.9-6.34-8.9-6.34l-1.56.26 3.98 15.05h.95s.62-1.41 2.34-1a54.47 54.47 0 0 0 14.36 1.88c17.9 0 27.97-11.21 27.52-22.2m-142.36 0c-.86-20.14-35.31-17.86-35.31-31.94 0-7.1 7.39-9.82 13.25-9.82 2.19 0 5.64.47 8.15 1.5 1.92.72 5.47 2.9 7.64 5.51l.51.71h.05v.01h.74l1.08.01-3.7-13.83h-1.26c-.56.96-2.6.6-2.6.6a45.9 45.9 0 0 0-9.79-1.46c-13-.76-25.78 4.95-25.78 17.88 0 21.8 35.26 17.6 35.26 33.65 0 7.18-8.74 11.98-14.6 11.98-4.13 0-8.36-.9-12.32-2.45-5.14-2.15-8.88-6.34-8.88-6.34l-1.57.26 3.97 15.05h.95s.64-1.41 2.34-1h-.01a54.67 54.67 0 0 0 14.38 1.88c17.9 0 27.97-11.21 27.5-22.2m-348.24 0c-.86-20.14-35.32-17.86-35.32-31.94 0-7.1 7.4-9.82 13.26-9.82a24 24 0 0 1 8.15 1.5c1.93.72 5.47 2.9 7.65 5.51l.5.71h.05l.02.01h.72l1.07.01-3.7-13.83h-1.25c-.55.96-2.6.6-2.6.6a45.96 45.96 0 0 0-9.78-1.46c-13.04-.76-25.8 4.95-25.8 17.88 0 21.8 35.28 17.6 35.28 33.65 0 7.18-8.76 11.98-14.61 11.98-4.13
0-8.37-.9-12.32-2.45-5.13-2.15-8.9-6.34-8.9-6.34l-1.55.26 3.97 15.06h.94s.64-1.42 2.35-1l-.02-.01a54.66 54.66 0 0 0 14.39 1.88c17.9 0 27.96-11.21 27.5-22.2m214.2-47.74h-23.91v1.65l4.84 2.37v.01l.18.09c1 .56 1.45 1.65 1.51 2.78v48.76c-.34 14.7-3.47 22.32-18.37 27.47v1.8s15.7-.1 22.8-8.58c3.72-4.3 5.97-10.85 6.43-20.54V28.8c0-1.23.43-2.43 1.51-3.02l.18-.09v-.01l4.84-2.37v-1.65m442.3-.6h-.62c-1.24.52-2.78.76-5.27.72h-36.05c-2.07.04-4.03-.2-5.26-.71h-.62v.05l-4.26 14.4h1.86l3.37-4.61a4.03 4.03 0 0 1 3.33-1.63h14.31v53.89c0 1.22-.45 2.42-1.5 3.02l-.18.08h-.01l-4.83 2.37v1.66h23.69v-1.66l-4.82-2.37h-.02l-.17-.08c-1.07-.6-1.5-1.8-1.5-3.01l-.03-.03V29.29h14.29c1.21 0 2.43.46 3.3 1.63l3.4 4.62h1.83l-4.25-14.46m-111.57 0h-.59c-1.26.5-2.79.75-5.25.71h-36.07a14.4 14.4 0 0 1-5.27-.71h-.6l-.03.05-4.26 14.4h1.87l3.4-4.61a3.97 3.97 0 0 1 3.29-1.63h14.33v53.89c0 1.22-.44 2.42-1.52 3.02l-.16.08h-.02l-4.82 2.37v1.66h23.69v-1.66l-4.82-2.37h-.01l-.17-.08c-1.08-.6-1.53-1.8-1.53-3.01 0 0
0-.02-.02-.03V29.29h14.3a4 4 0 0 1 3.3 1.63l3.4 4.62h1.84l-4.28-14.46m169.09 53.44-3.7 5.24-.03.01-.03.03a8.28 8.28 0 0 1-6.2 3.18h-22.04l.03-24.85 10.49.02c1.24 0 2.41.44 3.01 1.51l.1.17v.02l2.11 4.82h1.66V46.44h-1.66l-2.13 2.62c-1.08 1.24-1.9 1.54-3.12 1.54h-10.47V28.8h19.56c1.22 0 2.44.47 3.28 1.63l3.76 5.1h1.84l-3.84-13.1-.34-1.16h-.86c-1.37.73-2.36.51-4.13.51h-35.45v.01H1404v1.66l4.83 2.36.18.1c1.08.59 1.52 1.8 1.52 3.01l.03.04c.03 3.1 0 6.48 0 7.56v39.37c0 1.11 0 4.44-.03 7.37 0 1.23-.44 2.4-1.52 3l-.18.1-4.83 2.38v1.64h45.4l5.63-15.86h-1.84m-312.95 0-3.71 5.24v.01l-.04.03a8.24 8.24 0 0 1-6.2 3.18h-22.03l.03-24.85 10.5.02c1.21 0 2.4.44 3.02 1.51l.07.17.01.02 2.12 4.82h1.63V46.44h-1.63l-2.15 2.62c-1.07 1.24-1.88 1.54-3.12 1.54h-10.45V28.8h19.56c1.2 0 2.4.47 3.27 1.63l3.75 5.1h1.84l-3.83-13.1-.34-1.16h-.87c-1.35.73-2.36.51-4.13.51h-35.44v.01h-1.04v1.66l4.85 2.36.16.1c1.09.59 1.52 1.8 1.52 3.01l.05.04c.02 3.1-.01 6.48-.01 7.56v39.37c0 1.11.01 4.44-.04 7.37 0 1.23-.43 2.4-1.52
3l-.15.1h-.01l-4.85 2.38v1.64h45.39l5.65-15.86h-1.86M995.1 84.56c-16-.22-26.1-14.95-26.1-29.32 0-15.55 10.17-27.09 26.1-27.15 15.9.06 26.07 11.6 26.07 27.15 0 14.37-10.07 29.1-26.07 29.32zm0-63.91c-21.27-.03-37.87 16.17-37.87 35.52 0 21.18 17.25 35.85 37.71 35.85h.31c20.46 0 37.71-14.67 37.71-35.85 0-19.35-16.59-35.55-37.86-35.52"/>
</svg>
